<svg width="131" height="51" viewBox="0 0 131 51" fill="none" xmlns="http://www.w3.org/2000/svg">
<g clip-path="url(#clip0_2079_6994)">
<path d="M69.0688 21.7579V37.4452C69.0688 37.768 68.8088 38.0908 68.4188 38.0908H67.7038C67.3788 38.0908 67.0538 37.8325 67.0538 37.4452V21.7579C67.0538 21.4351 66.7938 21.1123 66.4038 21.1123H62.2438C61.9188 21.1123 61.5938 20.8541 61.5938 20.4667V19.9503C61.5938 19.6275 61.8537 19.3047 62.2438 19.3047H73.8788C74.2038 19.3047 74.5288 19.5629 74.5288 19.9503V20.4667C74.5288 20.7895 74.2688 21.1123 73.8788 21.1123H69.7188C69.3938 21.1123 69.0688 21.3705 69.0688 21.7579Z" fill="#333333"/>
<path d="M80.5742 37.3767V19.9464C80.5742 19.6236 80.8342 19.3008 81.2242 19.3008H91.6242C91.9492 19.3008 92.2742 19.559 92.2742 19.9464V20.4628C92.2742 20.7856 92.0142 21.1084 91.6242 21.1084H83.2392C82.9142 21.1084 82.5892 21.3666 82.5892 21.7539V27.1122C82.5892 27.435 82.8492 27.7577 83.2392 27.7577H90.1942C90.5192 27.7577 90.8442 28.016 90.8442 28.4033V28.9198C90.8442 29.2426 90.5842 29.5653 90.1942 29.5653H83.2392C82.9142 29.5653 82.5892 29.8236 82.5892 30.2109V35.6982C82.5892 36.021 82.8492 36.3438 83.2392 36.3438H91.6242C91.9492 36.3438 92.2742 36.602 92.2742 36.9894V37.5058C92.2742 37.8286 92.0142 38.1514 91.6242 38.1514H81.2242C80.8992 38.0223 80.5742 37.7641 80.5742 37.3767Z" fill="#333333"/>
<path d="M109.954 34.9904C109.564 35.7005 109.109 36.2815 108.524 36.7334C107.939 37.1853 107.289 37.5727 106.574 37.8309C105.859 38.0891 105.079 38.2182 104.234 38.2182C103.324 38.2182 102.414 38.0246 101.569 37.7018C100.724 37.379 100.009 36.8625 99.3585 36.2815C98.9035 35.8296 98.5785 35.3777 98.3185 34.9258C98.0585 34.4739 97.9285 33.8929 97.7985 33.3119C97.6685 32.7309 97.6035 32.0853 97.6035 31.3106C97.6035 30.536 97.6035 29.6967 97.6035 28.6638C97.6035 27.6955 97.6035 26.7917 97.6035 26.017C97.6035 25.2423 97.6685 24.5967 97.7985 24.0157C97.9285 23.4347 98.0585 22.9182 98.3185 22.4018C98.5785 21.9499 98.9035 21.498 99.3585 21.0461C100.009 20.4005 100.724 19.9486 101.569 19.6258C102.414 19.303 103.259 19.1094 104.234 19.1094C105.079 19.1094 105.859 19.2385 106.574 19.4967C107.289 19.7549 107.939 20.1423 108.524 20.5942C109.109 21.0461 109.564 21.6271 109.954 22.3372C110.214 22.7891 110.409 23.3056 110.604 23.8866C110.734 24.2739 110.409 24.7258 109.954 24.7258H109.174C108.914 24.7258 108.654 24.5322 108.589 24.2739C108.329 23.3701 107.809 22.5954 107.159 22.0144C106.379 21.3043 105.404 20.9815 104.234 20.9815C103.584 20.9815 102.999 21.1106 102.414 21.3043C101.829 21.5625 101.374 21.8853 100.919 22.2727C100.594 22.5955 100.399 22.9182 100.204 23.241C100.009 23.5638 99.8785 24.0157 99.8135 24.4676C99.7485 24.9195 99.6835 25.5005 99.6185 26.2106C99.6185 26.8562 99.5535 27.6954 99.5535 28.7284C99.5535 29.6967 99.5535 30.536 99.6185 31.2461C99.6185 31.8917 99.6835 32.4727 99.8135 32.9891C99.8785 33.441 100.009 33.8929 100.204 34.2157C100.399 34.5385 100.594 34.8613 100.919 35.1841C101.309 35.636 101.829 35.9587 102.414 36.1524C102.999 36.4106 103.584 36.4752 104.234 36.4752C105.404 36.4752 106.379 36.1524 107.224 35.4423C107.874 34.8613 108.394 34.0866 108.654 33.1828C108.719 32.9246 108.979 32.7309 109.239 32.7309H109.954C110.409 32.7309 110.669 33.1182 110.604 33.5701C110.409 33.9575 110.214 34.4739 109.954 34.9904Z" fill="#333333"/>
<path d="M128.219 37.3786V30.1482C128.219 29.8254 127.959 29.5026 127.569 29.5026H119.899C119.574 29.5026 119.249 29.7609 119.249 30.1482V37.4431C119.249 37.7659 118.989 38.0887 118.599 38.0887H117.884C117.559 38.0887 117.234 37.8305 117.234 37.4431V20.0128C117.234 19.69 117.494 19.3672 117.884 19.3672H118.599C118.924 19.3672 119.249 19.6254 119.249 20.0128V27.114C119.249 27.4368 119.509 27.7596 119.899 27.7596H127.569C127.894 27.7596 128.219 27.5014 128.219 27.114V20.0128C128.219 19.69 128.479 19.3672 128.869 19.3672H129.584C129.909 19.3672 130.234 19.6254 130.234 20.0128V37.4431C130.234 37.7659 129.974 38.0887 129.584 38.0887H128.869C128.479 38.0241 128.219 37.7659 128.219 37.3786Z" fill="#333333"/>
<path d="M39.2994 24.6608V31.8266L32.1494 38.8633V4.97089L27.2094 0L0.234375 26.7266V26.7911L5.30438 31.762H21.2944V24.6608H12.3894L25.0644 12.1367V46.0291L30.0044 51L46.3844 34.7316V24.6608H39.2994Z" fill="#B32E71"/>
<mask id="mask0_2079_6994" style="mask-type:luminance" maskUnits="userSpaceOnUse" x="25" y="4" width="8" height="16">
<path d="M25.0645 12.1385L32.1495 4.97266V19.6271H25.0645V12.1385Z" fill="white"/>
</mask>
<g mask="url(#mask0_2079_6994)">
<path d="M28.6413 23.1776L17.6562 12.2674L28.5763 1.42188L39.5613 12.2674L28.6413 23.1776Z" fill="url(#paint0_linear_2079_6994)"/>
</g>
<mask id="mask1_2079_6994" style="mask-type:luminance" maskUnits="userSpaceOnUse" x="25" y="31" width="8" height="16">
<path d="M32.1495 38.864L25.0645 46.0298V31.1172H32.1495V38.864Z" fill="white"/>
</mask>
<g mask="url(#mask1_2079_6994)">
<path d="M29.0929 27.5664L39.6229 39.6386L28.1179 49.5803L17.5879 37.5082L29.0929 27.5664Z" fill="url(#paint1_linear_2079_6994)"/>
</g>
<path d="M46.5808 14.5253C46.5808 16.5266 44.9558 18.1405 42.9408 18.1405C40.9258 18.1405 39.3008 16.5266 39.3008 14.5253C39.3008 12.5241 40.9258 10.9102 42.9408 10.9102C44.9558 10.9102 46.5808 12.5241 46.5808 14.5253Z" fill="#00A180"/>
<mask id="mask2_2079_6994" style="mask-type:luminance" maskUnits="userSpaceOnUse" x="39" y="12" width="8" height="7">
<path d="M39.3008 14.5231C39.3008 16.5243 40.9258 18.1383 42.9408 18.1383C44.3058 18.1383 45.4758 17.3636 46.1258 16.2661C45.4758 17.1053 44.4358 17.6864 43.2008 17.6864C41.1858 17.6864 39.5608 16.0724 39.5608 14.0712C39.5608 13.4256 39.6908 12.8446 40.0158 12.3281C39.5608 12.9737 39.3008 13.7484 39.3008 14.5231Z" fill="white"/>
</mask>
<g mask="url(#mask2_2079_6994)">
<path d="M46.1258 12.3945H39.3008V18.2047H46.1258V12.3945Z" fill="url(#paint2_linear_2079_6994)"/>
</g>
</g>
<defs>
<linearGradient id="paint0_linear_2079_6994" x1="30.4061" y1="14.079" x2="27.8614" y2="11.5207" gradientUnits="userSpaceOnUse">
<stop stop-color="#B32E71"/>
<stop offset="1" stop-color="#841C7C"/>
</linearGradient>
<linearGradient id="paint1_linear_2079_6994" x1="25.8997" y1="35.4545" x2="32.1981" y2="42.7894" gradientUnits="userSpaceOnUse">
<stop stop-color="#B32E71"/>
<stop offset="1" stop-color="#841C7C"/>
</linearGradient>
<linearGradient id="paint2_linear_2079_6994" x1="39.2996" y1="15.2808" x2="46.1372" y2="15.2808" gradientUnits="userSpaceOnUse">
<stop stop-color="#158072"/>
<stop offset="0.0722513" stop-color="#158072"/>
<stop offset="1" stop-color="#158072"/>
</linearGradient>
<clipPath id="clip0_2079_6994">
<rect width="130" height="51" fill="white" transform="translate(0.234375)"/>
</clipPath>
</defs>
</svg>
